<?xml version="1.0" standalone="no"?><!DOCTYPE svg PUBLIC "-//W3C//DTD SVG 1.1//EN" "http://www.w3.org/Graphics/SVG/1.1/DTD/svg11.dtd"><svg t="1493865344423" class="icon" style="" viewBox="0 0 1024 1024" version="1.1" xmlns="http://www.w3.org/2000/svg" p-id="2784" xmlns:xlink="http://www.w3.org/1999/xlink" width="75" height="75"><defs><style type="text/css"></style></defs><path d="M171.94496 820.68992c0 0 63.104-508.61568 83.28192-573.13792 0 0 231.68512 105.82016 518.3488 11.29472 0 0 78.46912 427.5456 78.46912 561.84832 0 0-246.78912 16.1792-291.24096 38.4 0 0 8.81664-288.90112-48.80896-276.03968-57.63584 12.86144-61.13792 260.82816-58.79808 276.03968L171.94496 820.68992z" p-id="2785" fill="#ffffff"></path><path d="M273.51552 164.91008c0 0-14.01856 41.02656-15.68256 59.66848 0 0 225.63328 110.44352 514.03264 14.56128l-17.78176-74.23488C754.08384 164.91008 566.3744 271.9488 273.51552 164.91008z" p-id="2786" fill="#ffffff"></path></svg>