<?xml version="1.0" standalone="no"?><!DOCTYPE svg PUBLIC "-//W3C//DTD SVG 1.1//EN" "http://www.w3.org/Graphics/SVG/1.1/DTD/svg11.dtd"><svg t="1493865388532" class="icon" style="" viewBox="0 0 1024 1024" version="1.1" xmlns="http://www.w3.org/2000/svg" p-id="4869" xmlns:xlink="http://www.w3.org/1999/xlink" width="75" height="75"><defs><style type="text/css"></style></defs><path d="M575.010079 760.00235c-126.343523 0-252.703419 1.221828-379.02136-0.547469-57.700143-0.808412-109.141746-23.019273-153.888879-60.028165C-33.3035 637.062344 10.524704 550.465057 72.91466 531.382443c34.784224-10.639315 71.001077-16.623609 106.613156-24.526603 65.464991-14.528901 126.85313-40.250726 184.314843-73.723072 84.273359-49.091068 166.610622-101.506858 249.777787-152.497183 11.437493-7.012717 23.266913-13.453407 34.278711-21.077038 15.924691-11.025101 28.505217-6.54916 39.625486 7.034207 9.275247 11.330046 18.228153 22.924105 27.444049 34.304294 52.692083 65.063855 111.072725 74.637907 181.510984 29.728068 9.771551-6.229888 19.21462-12.975523 28.981055-19.212574 32.286334-20.618597 51.755758-15.8285 65.283866 20.315698 10.598382 28.315906 18.226107 58.156538 23.506367 87.969541 13.440104 75.875085 5.834892 152.016229-0.072655 228.098022-1.00591 12.95608 2.831488 26.28055 4.365424 39.442314 5.661953 48.580438-15.626909 72.878844-64.491827 72.928986-126.347616 0.128937-252.695233 0.042979-379.042849 0.042979C575.010079 760.140497 575.010079 760.071935 575.010079 760.00235zM515.064802 411.420257c0.840134 4.406356 0.714268 5.79396 1.325182 6.6607 49.857525 70.722738 99.715049 141.446499 149.853983 211.969693 2.517333 3.540639 7.421017 7.397481 11.365862 7.566326 18.59245 0.795109 37.237089 0.354064 55.840796 0.354064 0-3.618411 0.477884-5.113461-0.067538-5.889127-50.14712-71.256904-100.307543-142.504598-150.789285-213.523071-2.435469-3.426029-7.673773-6.656607-11.734252-6.819313C552.691771 411.005818 534.478967 411.420257 515.064802 411.420257zM417.527348 474.853985c3.228531 6.010901 4.069689 8.332782 5.522784 10.17064 38.163181 48.281633 76.349899 96.544847 114.697275 144.68117 2.523473 3.168156 6.27082 7.439436 9.582239 7.560186 19.555381 0.714268 39.149649 0.352017 63.343677 0.352017-43.834344-55.139831-84.253916-106.115829-124.964106-156.859537-2.353604-2.933819-7.009647-5.525853-10.6782-5.64251C456.992175 474.53983 438.923658 474.853985 417.527348 474.853985zM479.698317 638.009925c-1.098008-4.031826-1.112334-5.964852-2.041496-7.222495-28.611641-38.754652-57.241702-77.494978-86.131683-116.0419-2.336208-3.118014-6.475482-6.762007-9.892301-6.881734-19.030425-0.666172-38.095643-0.320295-61.829184-0.320295 33.221636 44.656059 63.263859 85.174891 93.594655 125.476783 1.907443 2.533706 6.04467 4.696975 9.197476 4.771677C441.275215 638.234029 459.969996 638.009925 479.698317 638.009925z" p-id="4870"></path></svg>