<?xml version="1.0" standalone="no"?><!DOCTYPE svg PUBLIC "-//W3C//DTD SVG 1.1//EN" "http://www.w3.org/Graphics/SVG/1.1/DTD/svg11.dtd"><svg t="1493865274435" class="icon" style="" viewBox="0 0 1229 1024" version="1.1" xmlns="http://www.w3.org/2000/svg" p-id="1358" xmlns:xlink="http://www.w3.org/1999/xlink" width="90.0146484375" height="75"><defs><style type="text/css"></style></defs><path d="M262.816364 35.053907 61.14244 181.57859C27.341416 206.136471 20.073662 252.928116 44.423942 286.443401L161.767908 447.953515C186.151473 481.514613 233.082919 488.858239 266.666571 464.458288 279.397014 455.20908 289.717077 470.558428 289.717077 498.547977L289.717077 949.117711C289.717077 990.511867 323.351635 1024 364.841965 1024L863.958042 1024C905.537608 1024 939.082931 990.474056 939.082931 949.117711L939.082931 498.547977C939.082931 470.471554 957.689068 461.229264 962.133437 464.458288 995.717089 488.858239 1042.648535 481.514613 1067.0321 447.953515L1184.376064 286.443401C1208.726344 252.928116 1201.458591 206.136471 1167.657569 181.57859L965.983642 35.053907C917.428931 0 884.167045 0 863.958042 0L364.841965 0C344.597439 0 305.912208 0 262.816364 35.053907ZM429.162425 127.896774C442.82107 218.991571 521.374556 287.219512 614.400005 287.219512 708.183588 287.219512 787.162921 217.897514 799.931023 125.863655 800.878761 119.032259 796.109112 112.726024 789.277716 111.778287 782.446321 110.830548 776.140088 115.600197 775.192346 122.431593 764.131804 202.157192 695.674337 262.243902 614.400005 262.243902 533.78263 262.243902 465.693874 203.105145 453.861936 124.193359 452.839266 117.372778 446.481055 112.672642 439.660473 113.695312 432.839892 114.717982 428.139756 121.076193 429.162425 127.896774Z" p-id="1359"></path></svg>