<?xml version="1.0" standalone="no"?><!DOCTYPE svg PUBLIC "-//W3C//DTD SVG 1.1//EN" "http://www.w3.org/Graphics/SVG/1.1/DTD/svg11.dtd"><svg width="200.1953125" height="200" viewBox="0 0 200.1953125 200" version="1.1" xmlns="http://www.w3.org/2000/svg" xmlns:xlink="http://www.w3.org/1999/xlink"><defs><style type="text/css"><![CDATA[
@font-face { font-family: ifont; src: url("//at.alicdn.com/t/font_1442373896_4754455.eot?#iefix") format("embedded-opentype"), url("//at.alicdn.com/t/font_1442373896_4754455.woff") format("woff"), url("//at.alicdn.com/t/font_1442373896_4754455.ttf") format("truetype"), url("//at.alicdn.com/t/font_1442373896_4754455.svg#ifont") format("svg"); }

]]></style></defs><g class="transform-group"><g transform="scale(0.1953125, 0.1953125)"><path d="M641.1872 16.4464c-33.384-8.7344-67.3456-14.0192-101.8448-15.6656-1.8624-0.0896-3.7088-0.5136-5.5616-0.7808-14.5376 0-29.0752 0-43.6128 0-10.04 0.8944-20.0912 1.6928-30.12 2.6992C383.2752 10.4 311.6256 33.9104 246.0976 74.5504 129.3872 146.9328 52.7808 249.6704 16.6368 382.2688c-9.1184 33.4528-14.1232 67.6272-15.8512 102.2688-0.1088 2.184-0.5168 4.352-0.7856 6.5264 0 13.904 0 27.808 0 41.712 0.88 10.2048 1.6464 20.4208 2.6608 30.6112 7.9648 80.08 33.216 154.3632 76.6384 222.0576 67.3296 104.9616 160.5392 176.8896 279.4224 214.9312 63.1536 20.2096 128.0256 27.4912 194.0848 21.6928 142.4128-12.5024 260.0688-73.6784 352.344-182.584 59.1232-69.7792 95.8432-150.5056 111.368-240.7088C1061.6208 336.72 898.6144 83.8016 641.1872 16.4464zM510.92 966.9632C260.5376 966.96 56.8256 762.6944 56.888 511.7008 56.9504 260.072 261.032 56.6848 513.2624 56.88c250.2496 0.1936 453.7936 204.2928 453.7952 455.0304C967.0592 763.6144 763.2224 966.9664 510.92 966.9632zM474.6752 202.5888c-81.7584 13.8208-139.2288 61.4672-172.0784 137.3376-22.0432 50.9104-24.8864 103.0736-4.1968 155.7312 11.3376 28.8576 24.5792 56.7152 39.792 83.6688 37.7296 66.8464 82.1088 129.1888 129.056 189.7648 14.4064 18.5888 29.2736 36.8192 44.3648 55.7584 1.6896-1.8688 2.776-2.9792 3.7616-4.1728 49.9984-60.5824 97.096-123.3072 139.3056-189.6016 26.6416-41.8432 51.4032-84.7296 69.1744-131.2496 8.3056-21.7424 15.3232-43.9616 15.5168-67.4688 0.496-60.3536-18.7984-113.8592-59.7296-158.2256C624.3344 214.1824 555.1424 188.9872 474.6752 202.5888zM682.3984 449.3104c-0.512 22.9872-8.0192 44.6272-16.3584 65.8384-16.4032 41.72-38.2672 80.6352-61.6752 118.72-27.4704 44.6976-57.3616 87.7456-89.0128 129.576-0.9456 1.2496-1.952 2.4512-3.5488 4.4512-8.7408-11.8368-17.1808-23.032-25.3744-34.4048-37.9632-52.6928-73.7136-106.7904-103.7776-164.4656-11.6048-22.264-21.7104-45.1648-30.2912-68.7984-18.8736-51.992-12.7184-102.0592 12.1024-150.16 21.4928-41.6512 53.9968-72.3056 99.304-86.192 65.584-20.1008 122.1312-2.44 168.2544 47.0432C668.0352 349.5584 683.568 396.7872 682.3984 449.3104zM512.072 369.7264c-31.44-0.0368-56.9856 25.472-56.9808 56.896 0.0048 31.2224 25.3728 56.7296 56.5456 56.8544 31.4848 0.1264 57.1392-25.2784 57.216-56.6576C568.9312 395.3568 543.4768 369.7616 512.072 369.7264z" fill="#272636"></path></g></g></svg>