<?xml version="1.0" standalone="no"?><!DOCTYPE svg PUBLIC "-//W3C//DTD SVG 1.1//EN" "http://www.w3.org/Graphics/SVG/1.1/DTD/svg11.dtd"><svg t="1508843417489" class="icon" style="" viewBox="0 0 1024 1024" version="1.1" xmlns="http://www.w3.org/2000/svg" p-id="2097" xmlns:xlink="http://www.w3.org/1999/xlink" width="70" height="70"><defs><style type="text/css"></style></defs><path d="M916.404 587.801H114.882c-37.852 0-66.791-28.939-66.791-66.786V498.75c0-37.852 28.938-66.794 66.791-66.794h89.058V231.574c0-97.962 80.148-178.112 178.113-178.112H649.22c97.972 0 178.123 80.15 178.123 178.112v200.382h89.062c37.848 0 66.786 28.942 66.786 66.794v22.26c-0.001 37.851-28.939 66.791-66.787 66.791zM782.808 231.574c0-73.473-60.106-133.587-133.588-133.587H382.054c-73.472 0-133.59 60.115-133.59 133.587v200.382h534.344V231.574zM938.659 498.75c0-13.359-8.897-22.266-22.255-22.266H114.882c-13.359 0-22.262 8.906-22.262 22.266v22.26c0 13.362 8.903 22.271 22.262 22.271h801.522c13.357 0 22.255-8.908 22.255-22.271v-22.26z m-16.501 229.175c-0.177-2.558-1.4-4.167-3.872-4.803-1.75-0.447-3.482-0.94-5.239-1.218-25.148-3.944-50.313-7.799-75.718-9.561-20.282-1.409-40.595-2.315-60.938-3.223-39.126-1.751-78.169-0.895-117.084 4.028-23.78 3.009-47.318 7.307-70.183 14.695-11.556 3.733-22.913 8.088-34.48 11.767-18.053 5.717-36.579 8.289-55.318 4.771-11.266-2.109-22.378-5.336-33.307-8.874-19.767-6.391-39.521-12.693-60.024-16.46-39.87-7.371-80.045-10.747-117.506-10.346-30.532 0.047-57.958 1.094-85.264 4.365-22.396 2.692-44.764 5.682-67.128 8.718-4.754 0.652-9.401 2.043-14.049 3.275-2.494 0.658-4.143 2.31-4.225 5.078-0.433 13.217-0.891 26.412-1.224 39.644-0.04 1.988 0.45 3.991 0.746 5.975 0.247 1.686 1.17 2.842 2.777 3.547 1.704 0.75 3.46 1.495 4.985 2.548 7.34 5.113 10.873 12.857 13.69 20.896 2.002 5.751 3.304 11.73 4.967 17.589 1.035 3.653 2.401 7.222 3.226 10.912 3.875 17.244 7.489 34.57 11.455 51.781 3.792 16.432 8.722 32.504 16.576 47.531 8.783 16.794 21.289 29.647 39.045 37.046 10.753 4.474 21.938 7.338 33.397 9.15 20.542 3.256 41.212 3.644 61.926 2.143 20.992-1.514 41.708-4.689 61.892-10.793 14.991-4.536 29.153-10.852 41.182-21.084 18.354-15.662 33.13-34.243 44.487-55.553 11.342-21.299 19.293-43.932 26.435-66.876 2.059-6.588 3.994-13.217 6.37-19.684 3.524-9.526 10.354-15.42 20.518-16.986 3.232-0.503 6.591-0.634 9.872-0.446 7.619 0.446 14.954 2.058 20.041 8.425 2.221 2.772 4.268 5.841 5.691 9.082 2.784 6.312 5.426 12.719 7.49 19.277 8.958 28.354 20.851 55.391 35.88 81.059 12.465 21.339 28.902 38.572 50.704 50.46 15.411 8.405 31.908 13.769 49.07 17.11 25.834 5.007 51.915 6.241 78.136 5.088 15.857-0.688 31.52-2.702 46.77-7.252 15.642-4.701 29.391-12.331 39.669-25.381 6.654-8.425 11.591-17.819 15.648-27.712 8.55-20.83 14.034-42.551 19.002-64.444 2.43-10.71 4.929-21.404 7.551-32.079 1.363-5.58 3.084-11.062 4.629-16.587 1.445-5.18 2.673-10.429 5.96-14.909 3.286-4.509 6.656-8.917 12.154-10.864 2.399-0.854 3.613-2.534 4.128-4.807 0.396-1.762 0.823-3.553 0.823-5.324 0.01-7.902 0.01-15.805-0.215-23.69-0.188-5.683-0.771-11.322-1.123-16.996M449.156 836.508c-5.422 23.065-14.354 44.688-26.324 65.104-6.523 11.165-13.928 21.617-23.333 30.566-12.408 11.857-27.338 18.837-43.73 23.13-33.184 8.678-66.748 10.856-100.697 5.77-6.651-0.997-13.206-2.749-19.751-4.411-13.481-3.462-23.7-11.302-31.475-22.878-8.599-12.814-13.876-26.886-17.418-41.746-4.611-19.402-7.208-39.132-9.17-58.957-1.143-11.499-0.927-22.953 0.491-34.4 0.717-5.75 1.185-11.6 2.489-17.23 4.614-20.041 17.003-32.804 36.919-38.034 18.212-4.766 36.75-7.574 55.478-9.093 13.879-1.139 27.807-1.711 36.798-2.235 31.951 0.397 58.778 2.438 85.178 8.516 10.775 2.477 21.696 4.7 31.555 9.949 4.85 2.588 9.563 5.646 13.796 9.141 6.993 5.763 10.563 13.618 12.054 22.502 3.109 18.327 1.337 36.384-2.86 54.306m413.452-8.551c-0.699 27.852-5.391 55.05-15.323 81.189-4.004 10.584-9.453 20.358-17.657 28.306-9.14 8.868-20.513 13.563-32.598 16.84-15.183 4.105-30.715 5.098-46.356 5.233-23.605 0.212-46.866-2.727-69.938-7.64-22.839-4.846-41.072-16.814-55.562-34.938-18.581-23.221-30.489-49.583-37.163-78.431-3.08-13.332-5.673-26.745-5.335-40.517 0.151-5.916 0.755-11.896 1.832-17.733 2.656-14.545 11.587-24.047 25.038-29.513 13.514-5.466 27.646-8.808 41.899-11.625 15.873-3.161 31.872-5.508 48.019-6.55 12.597-0.82 25.233-1.162 33.785-1.528 33.801 1.655 63.372 4.136 92.11 12.341 5.284 1.5 10.337 3.909 15.33 6.254 4.741 2.216 8.379 5.85 10.74 10.549 2.598 5.199 5.264 10.398 7.322 15.814 2.395 6.34 2.929 13.146 3.188 19.874 0.406 10.686 0.94 21.396 0.663 32.068m90.899-315.833c0 22.949-18.607 41.561-41.558 41.561H125.272c-22.952 0-41.561-18.611-41.561-41.561 0-22.955 18.609-41.562 41.561-41.562h786.671c22.951 0.001 41.558 18.608 41.558 41.562z m-160.3-75.699c0 29.51-23.927 53.435-53.435 53.435H290.022c-29.507 0-53.437-23.925-53.437-53.435v-286.47c0-29.507 23.929-53.433 53.437-53.433h449.744c29.508 0 53.435 23.925 53.435 53.433v286.47z" p-id="2098" fill="#2c2c2c"></path></svg>