<?xml version="1.0" standalone="no"?><!DOCTYPE svg PUBLIC "-//W3C//DTD SVG 1.1//EN" "http://www.w3.org/Graphics/SVG/1.1/DTD/svg11.dtd"><svg t="1481034477120" class="icon" style="" viewBox="0 0 1024 1024" version="1.1" xmlns="http://www.w3.org/2000/svg" p-id="1519" xmlns:xlink="http://www.w3.org/1999/xlink" width="16" height="16"><defs><style type="text/css"></style></defs><path d="M334.463 459.012h355.073v-133.152q0-73.5-52.018-125.519t-125.519-52.018-125.519 52.018-52.018 125.519v133.152zM911.458 525.589v399.458q0 27.74-19.44 47.136t-47.136 19.44h-665.761q-27.74 0-47.136-19.44t-19.44-47.136v-399.458q0-27.74 19.44-47.136t47.136-19.44h22.192v-133.152q0-127.605 91.565-219.124t219.124-91.565 219.124 91.565 91.565 219.124v133.152h22.192q27.74 0 47.136 19.44t19.44 47.136z" p-id="1520" fill="#8a8a8a"></path></svg>